<svg width="100" height="88" viewBox="0 0 100 88" fill="none" xmlns="http://www.w3.org/2000/svg">
<path d="M91.9227 8.20413C86.6864 2.96776 79.754 0.105775 72.3553 0.105775C64.9565 0.105775 58.003 2.98896 52.7666 8.22532L50.0318 10.9601L47.2546 8.18293C42.0183 2.94656 35.0435 0.0421753 27.6447 0.0421753C20.2672 0.0421753 13.3136 2.92536 8.09847 8.14052C2.8621 13.3769 -0.0210838 20.3305 0.000116085 27.7292C0.000116085 35.128 2.9045 42.0603 8.14087 47.2967L47.9542 87.11C48.5054 87.6612 49.2474 87.958 49.9682 87.958C50.689 87.958 51.431 87.6824 51.9822 87.1312L91.8803 47.3815C97.1167 42.1451 99.9999 35.1916 99.9999 27.7928C100.021 20.394 97.1591 13.4405 91.9227 8.20413Z" fill="#FF3146"/>
</svg>
