<svg width="100" height="88" viewBox="0 0 100 88" fill="none" xmlns="http://www.w3.org/2000/svg">
<path d="M91.9227 8.20413C86.6864 2.96776 79.754 0.105775 72.3553 0.105775C64.9565 0.105775 58.003 2.98896 52.7666 8.22532L50.0318 10.9601L47.2546 8.18293C42.0183 2.94656 35.0435 0.0421753 27.6447 0.0421753C20.2672 0.0421753 13.3136 2.92536 8.09847 8.14053C2.8621 13.3769 -0.0210838 20.3305 0.000116084 27.7292C0.000116084 35.128 2.9045 42.0603 8.14087 47.2967L47.9542 87.11C48.5054 87.6612 49.2474 87.958 49.9682 87.958C50.689 87.958 51.431 87.6824 51.9822 87.1312L91.8803 47.3815C97.1167 42.1451 99.9999 35.1916 99.9999 27.7928C100.021 20.394 97.1591 13.4405 91.9227 8.20413ZM87.8524 43.3323L49.9682 81.0681L12.1688 43.2687C8.01367 39.1135 5.72408 33.6016 5.72408 27.7292C5.72408 21.8568 7.99247 16.3449 12.1476 12.2109C16.2816 8.07693 21.7936 5.78734 27.6447 5.78734C33.5171 5.78734 39.0503 8.07693 43.2054 12.2321L47.9966 17.0233C49.1202 18.1469 50.9222 18.1469 52.0458 17.0233L56.7946 12.2745C60.9497 8.11933 66.4829 5.82974 72.3341 5.82974C78.1852 5.82974 83.6972 8.11933 87.8524 12.2533C92.0075 16.4085 94.2759 21.9204 94.2759 27.7928C94.2971 33.6652 92.0075 39.1771 87.8524 43.3323Z" fill="black"/>
</svg>
